# This file uses centimeters as units for non-parametric coordinates.

mtllib arm.mtl
g default
v -4.793753 -0.062500 0.218753
v -4.793753 -0.031253 0.250000
v -4.825000 -0.031253 0.218753
v 4.825000 -0.031253 0.218753
v 4.793753 -0.031253 0.250000
v 4.793753 -0.062500 0.218753
v -4.825000 0.031253 0.218753
v -4.793753 0.031253 0.250000
v -4.793753 0.062500 0.218753
v 4.793753 0.062500 0.218753
v 4.793753 0.031253 0.250000
v 4.825000 0.031253 0.218753
v -4.825000 0.031253 -0.218753
v -4.793753 0.062500 -0.218753
v -4.793753 0.031253 -0.250000
v 4.793753 0.031253 -0.250000
v 4.793753 0.062500 -0.218753
v 4.825000 0.031253 -0.218753
v -4.825000 -0.031253 -0.218753
v -4.793753 -0.031253 -0.250000
v -4.793753 -0.062500 -0.218753
v 4.793753 -0.062500 -0.218753
v 4.793753 -0.031253 -0.250000
v 4.825000 -0.031253 -0.218753
v 5.451057 -0.062500 -0.309017
v 5.309018 -0.062500 -0.587786
v 5.087786 -0.062500 -0.809017
v 4.809017 -0.062500 -0.951057
v 4.500000 -0.062500 -1.000000
v 4.190983 -0.062500 -0.951057
v 3.912215 -0.062500 -0.809017
v 3.690983 -0.062500 -0.587785
v 3.548943 -0.062500 -0.309017
v 3.500000 -0.062500 0.000000
v 3.548943 -0.062500 0.309017
v 3.690983 -0.062500 0.587785
v 3.912215 -0.062500 0.809017
v 4.190983 -0.062500 0.951057
v 4.500000 -0.062500 1.000000
v 4.809017 -0.062500 0.951057
v 5.087785 -0.062500 0.809017
v 5.309017 -0.062500 0.587785
v 5.451056 -0.062500 0.309017
v 5.500000 -0.062500 0.000000
v 5.451057 0.062500 -0.309017
v 5.309018 0.062500 -0.587786
v 5.087786 0.062500 -0.809017
v 4.809017 0.062500 -0.951057
v 4.500000 0.062500 -1.000000
v 4.190983 0.062500 -0.951057
v 3.912215 0.062500 -0.809017
v 3.690983 0.062500 -0.587785
v 3.548943 0.062500 -0.309017
v 3.500000 0.062500 0.000000
v 3.548943 0.062500 0.309017
v 3.690983 0.062500 0.587785
v 3.912215 0.062500 0.809017
v 4.190983 0.062500 0.951057
v 4.500000 0.062500 1.000000
v 4.809017 0.062500 0.951057
v 5.087785 0.062500 0.809017
v 5.309017 0.062500 0.587785
v 5.451056 0.062500 0.309017
v 5.500000 0.062500 0.000000
v 4.500000 -0.062500 0.000000
v 4.500000 0.062500 0.000000
vt 0.375810 0.984377
vt 0.375000 0.984377
vt 0.375000 0.765623
vt 0.375809 -0.000000
vt 0.375809 0.062494
vt 0.625000 0.984377
vt 0.624190 0.984377
vt 0.625000 0.765623
vt 0.640623 0.062494
vt 0.375000 0.265623
vt 0.375000 0.484377
vt 0.375809 0.187506
vt 0.624191 0.187506
vt 0.625000 0.265623
vt 0.375000 0.562494
vt 0.375000 0.687506
vt 0.375810 0.484377
vt 0.624190 0.484377
vt 0.625000 0.562494
vt 0.625000 0.687506
vt 0.375809 0.687506
vt 0.624191 0.687506
vt 0.624191 0.765623
vt 0.624191 0.062494
vt 0.375809 0.265623
vt 0.624191 0.265623
vt 0.375809 0.562494
vt 0.624191 0.562494
vt 0.375809 0.765623
vt 0.859377 0.062494
vt 0.859376 0.187506
vt 0.140623 0.062494
vt 0.359377 0.062494
vt 0.359377 0.187506
vt 0.140623 0.187506
vt 0.624191 0.000000
vt 0.640623 0.187506
vt 0.625000 0.484377
vt 0.375000 0.312500
vt 0.387500 0.312500
vt 0.387500 0.688440
vt 0.375000 0.688440
vt 0.400000 0.312500
vt 0.400000 0.688440
vt 0.412500 0.312500
vt 0.412500 0.688440
vt 0.425000 0.312500
vt 0.425000 0.688440
vt 0.437500 0.312500
vt 0.437500 0.688440
vt 0.450000 0.312500
vt 0.450000 0.688440
vt 0.462500 0.312500
vt 0.462500 0.688440
vt 0.475000 0.312500
vt 0.475000 0.688440
vt 0.487500 0.312500
vt 0.487500 0.688440
vt 0.500000 0.312500
vt 0.500000 0.688440
vt 0.512500 0.312500
vt 0.512500 0.688440
vt 0.525000 0.312500
vt 0.525000 0.688440
vt 0.537500 0.312500
vt 0.537500 0.688440
vt 0.550000 0.312500
vt 0.550000 0.688440
vt 0.562500 0.312500
vt 0.562500 0.688440
vt 0.575000 0.312500
vt 0.575000 0.688440
vt 0.587500 0.312500
vt 0.587500 0.688440
vt 0.600000 0.312500
vt 0.600000 0.688440
vt 0.612500 0.312500
vt 0.612500 0.688440
vt 0.625000 0.312500
vt 0.625000 0.688440
vt 0.626409 0.064408
vt 0.648603 0.107966
vt 0.500000 0.150000
vt 0.591842 0.029841
vt 0.548284 0.007647
vt 0.500000 -0.000000
vt 0.451716 0.007647
vt 0.408159 0.029841
vt 0.373591 0.064409
vt 0.351397 0.107966
vt 0.343750 0.156250
vt 0.351397 0.204534
vt 0.373591 0.248091
vt 0.408159 0.282659
vt 0.451716 0.304853
vt 0.500000 0.312500
vt 0.548284 0.304853
vt 0.591841 0.282659
vt 0.626409 0.248091
vt 0.648603 0.204534
vt 0.656250 0.156250
vt 0.648603 0.892034
vt 0.626409 0.935591
vt 0.500000 0.837500
vt 0.591841 0.970159
vt 0.548284 0.992353
vt 0.500000 1.000000
vt 0.451716 0.992353
vt 0.408159 0.970159
vt 0.373591 0.935591
vt 0.351397 0.892034
vt 0.343750 0.843750
vt 0.351397 0.795466
vt 0.373591 0.751909
vt 0.408159 0.717341
vt 0.451716 0.695147
vt 0.500000 0.687500
vt 0.548284 0.695147
vt 0.591842 0.717341
vt 0.626409 0.751908
vt 0.648603 0.795466
vt 0.656250 0.843750
vn -0.707107 -0.707106 0.000000
vn -0.707107 -0.707106 0.000000
vn -0.707107 -0.707106 0.000000
vn -0.707107 -0.707106 0.000000
vn 0.000000 -0.707107 0.707107
vn 0.000000 -0.707107 0.707107
vn 0.000000 -0.707107 0.707107
vn 0.000000 -0.707107 0.707107
vn -0.707109 0.000000 0.707104
vn -0.707109 0.000000 0.707104
vn -0.707109 0.000000 0.707104
vn -0.707109 0.000000 0.707104
vn 0.707107 -0.707106 0.000000
vn 0.707107 -0.707106 0.000000
vn 0.707107 -0.707106 0.000000
vn 0.707107 -0.707106 0.000000
vn 0.707109 0.000000 0.707104
vn 0.707109 0.000000 0.707104
vn 0.707109 0.000000 0.707104
vn 0.707109 0.000000 0.707104
vn -0.707107 0.707106 0.000000
vn -0.707107 0.707106 0.000000
vn -0.707107 0.707106 0.000000
vn -0.707107 0.707106 0.000000
vn 0.000000 0.707107 0.707107
vn 0.000000 0.707107 0.707107
vn 0.000000 0.707107 0.707107
vn 0.000000 0.707107 0.707107
vn 0.707107 0.707106 0.000000
vn 0.707107 0.707106 0.000000
vn 0.707107 0.707106 0.000000
vn 0.707107 0.707106 0.000000
vn -0.707109 0.000000 -0.707104
vn -0.707109 0.000000 -0.707104
vn -0.707109 0.000000 -0.707104
vn -0.707109 0.000000 -0.707104
vn 0.000000 0.707107 -0.707107
vn 0.000000 0.707107 -0.707107
vn 0.000000 0.707107 -0.707107
vn 0.000000 0.707107 -0.707107
vn 0.707109 0.000000 -0.707104
vn 0.707109 0.000000 -0.707104
vn 0.707109 0.000000 -0.707104
vn 0.707109 0.000000 -0.707104
vn 0.000000 -0.707107 -0.707107
vn 0.000000 -0.707107 -0.707107
vn 0.000000 -0.707107 -0.707107
vn 0.000000 -0.707107 -0.707107
vn 0.000000 0.000000 1.000000
vn 0.000000 0.000000 1.000000
vn 0.000000 0.000000 1.000000
vn 0.000000 0.000000 1.000000
vn 0.000000 1.000000 0.000000
vn 0.000000 1.000000 0.000000
vn 0.000000 1.000000 0.000000
vn 0.000000 1.000000 0.000000
vn 0.000000 0.000000 -1.000000
vn 0.000000 0.000000 -1.000000
vn 0.000000 0.000000 -1.000000
vn 0.000000 0.000000 -1.000000
vn 0.000000 -1.000000 0.000000
vn 0.000000 -1.000000 0.000000
vn 0.000000 -1.000000 0.000000
vn 0.000000 -1.000000 0.000000
vn 1.000000 0.000000 0.000000
vn 1.000000 0.000000 0.000000
vn 1.000000 0.000000 0.000000
vn 1.000000 0.000000 0.000000
vn -1.000000 0.000000 0.000000
vn -1.000000 0.000000 0.000000
vn -1.000000 0.000000 0.000000
vn -1.000000 0.000000 0.000000
vn -0.577348 -0.577358 0.577344
vn -0.577348 -0.577358 0.577345
vn -0.577348 -0.577358 0.577344
vn 0.577348 -0.577358 0.577344
vn 0.577348 -0.577358 0.577345
vn 0.577348 -0.577358 0.577344
vn -0.577348 0.577358 0.577344
vn -0.577348 0.577358 0.577345
vn -0.577348 0.577358 0.577344
vn 0.577348 0.577358 0.577344
vn 0.577348 0.577358 0.577345
vn 0.577348 0.577358 0.577344
vn -0.577348 0.577358 -0.577344
vn -0.577348 0.577358 -0.577344
vn -0.577348 0.577358 -0.577345
vn 0.577348 0.577358 -0.577345
vn 0.577348 0.577358 -0.577344
vn 0.577348 0.577358 -0.577344
vn -0.577348 -0.577358 -0.577344
vn -0.577348 -0.577358 -0.577345
vn -0.577348 -0.577358 -0.577344
vn 0.577348 -0.577358 -0.577344
vn 0.577348 -0.577358 -0.577345
vn 0.577348 -0.577358 -0.577344
vn 0.951057 0.000000 -0.309016
vn 0.809017 0.000000 -0.587785
vn 0.809017 0.000000 -0.587785
vn 0.951057 0.000000 -0.309016
vn 0.587785 0.000000 -0.809017
vn 0.587785 0.000000 -0.809017
vn 0.309017 0.000000 -0.951057
vn 0.309017 0.000000 -0.951057
vn -0.000000 0.000000 -1.000000
vn -0.000000 0.000000 -1.000000
vn -0.309017 0.000000 -0.951057
vn -0.309017 0.000000 -0.951057
vn -0.587786 0.000000 -0.809017
vn -0.587786 0.000000 -0.809017
vn -0.809017 0.000000 -0.587785
vn -0.809017 0.000000 -0.587785
vn -0.951057 0.000000 -0.309017
vn -0.951057 0.000000 -0.309017
vn -1.000000 0.000000 0.000000
vn -1.000000 0.000000 0.000000
vn -0.951057 0.000000 0.309017
vn -0.951057 0.000000 0.309017
vn -0.809017 0.000000 0.587785
vn -0.809017 0.000000 0.587785
vn -0.587785 0.000000 0.809017
vn -0.587785 0.000000 0.809017
vn -0.309017 0.000000 0.951057
vn -0.309017 0.000000 0.951057
vn 0.000000 0.000000 1.000000
vn 0.000000 0.000000 1.000000
vn 0.309017 0.000000 0.951057
vn 0.309017 0.000000 0.951057
vn 0.587785 0.000000 0.809017
vn 0.587785 0.000000 0.809017
vn 0.809017 0.000000 0.587785
vn 0.809017 0.000000 0.587785
vn 0.951057 0.000000 0.309017
vn 0.951057 0.000000 0.309017
vn 1.000000 0.000000 0.000001
vn 1.000000 0.000000 0.000001
vn 0.000000 -1.000000 0.000000
vn 0.000000 -1.000000 0.000000
vn 0.000000 -1.000000 0.000000
vn 0.000000 -1.000000 0.000000
vn 0.000000 -1.000000 0.000000
vn 0.000000 -1.000000 0.000000
vn 0.000000 -1.000000 0.000000
vn 0.000000 -1.000000 0.000000
vn 0.000000 -1.000000 0.000000
vn 0.000000 -1.000000 0.000000
vn 0.000000 -1.000000 0.000000
vn 0.000000 -1.000000 0.000000
vn 0.000000 -1.000000 0.000000
vn 0.000000 -1.000000 0.000000
vn 0.000000 -1.000000 0.000000
vn 0.000000 -1.000000 0.000000
vn 0.000000 -1.000000 0.000000
vn 0.000000 -1.000000 0.000000
vn 0.000000 -1.000000 0.000000
vn 0.000000 -1.000000 0.000000
vn 0.000000 -1.000000 0.000000
vn 0.000000 1.000000 0.000000
vn 0.000000 1.000000 0.000000
vn 0.000000 1.000000 0.000000
vn 0.000000 1.000000 0.000000
vn 0.000000 1.000000 0.000000
vn 0.000000 1.000000 0.000000
vn 0.000000 1.000000 0.000000
vn 0.000000 1.000000 0.000000
vn 0.000000 1.000000 0.000000
vn 0.000000 1.000000 0.000000
vn 0.000000 1.000000 0.000000
vn 0.000000 1.000000 0.000000
vn 0.000000 1.000000 0.000000
vn 0.000000 1.000000 0.000000
vn 0.000000 1.000000 0.000000
vn 0.000000 1.000000 0.000000
vn 0.000000 1.000000 0.000000
vn 0.000000 1.000000 0.000000
vn 0.000000 1.000000 0.000000
vn 0.000000 1.000000 0.000000
vn 0.000000 1.000000 0.000000
s off
g arm
usemtl initialShadingGroup
f 1/1/1 3/2/2 19/3/3 21/29/4
f 2/5/5 1/4/6 6/36/7 5/24/8
f 3/33/9 2/5/10 8/12/11 7/34/12
f 4/6/13 6/7/14 22/23/15 24/8/16
f 5/24/17 4/9/18 12/37/19 11/13/20
f 7/10/21 9/25/22 14/17/23 13/11/24
f 9/25/25 8/12/26 11/13/27 10/26/28
f 10/26/29 12/14/30 18/38/31 17/18/32
f 13/15/33 15/27/34 20/21/35 19/16/36
f 15/27/37 14/17/38 17/18/39 16/28/40
f 16/28/41 18/19/42 24/20/43 23/22/44
f 21/29/45 20/21/46 23/22/47 22/23/48
f 2/5/49 5/24/50 11/13/51 8/12/52
f 9/25/53 10/26/54 17/18/55 14/17/56
f 15/27/57 16/28/58 23/22/59 20/21/60
f 21/29/61 22/23/62 6/7/63 1/1/64
f 4/9/65 24/30/66 18/31/67 12/37/68
f 19/32/69 3/33/70 7/34/71 13/35/72
f 1/4/73 2/5/74 3/33/75
f 4/9/76 5/24/77 6/36/78
f 7/34/79 8/12/80 9/25/81
f 10/26/82 11/13/83 12/37/84
f 13/11/85 14/17/86 15/27/87
f 16/28/88 17/18/89 18/38/90
f 19/16/91 20/21/92 21/29/93
f 22/23/94 23/22/95 24/20/96
s 1
f 25/39/97 26/40/98 46/41/99 45/42/100
f 26/40/98 27/43/101 47/44/102 46/41/99
f 27/43/101 28/45/103 48/46/104 47/44/102
f 28/45/103 29/47/105 49/48/106 48/46/104
f 29/47/105 30/49/107 50/50/108 49/48/106
f 30/49/107 31/51/109 51/52/110 50/50/108
f 31/51/109 32/53/111 52/54/112 51/52/110
f 32/53/111 33/55/113 53/56/114 52/54/112
f 33/55/113 34/57/115 54/58/116 53/56/114
f 34/57/115 35/59/117 55/60/118 54/58/116
f 35/59/117 36/61/119 56/62/120 55/60/118
f 36/61/119 37/63/121 57/64/122 56/62/120
f 37/63/121 38/65/123 58/66/124 57/64/122
f 38/65/123 39/67/125 59/68/126 58/66/124
f 39/67/125 40/69/127 60/70/128 59/68/126
f 40/69/127 41/71/129 61/72/130 60/70/128
f 41/71/129 42/73/131 62/74/132 61/72/130
f 42/73/131 43/75/133 63/76/134 62/74/132
f 43/75/133 44/77/135 64/78/136 63/76/134
f 44/77/135 25/79/97 45/80/100 64/78/136
s 2
f 26/81/137 25/82/138 65/83/139
f 27/84/140 26/81/137 65/83/139
f 28/85/141 27/84/140 65/83/139
f 29/86/142 28/85/141 65/83/139
f 30/87/143 29/86/142 65/83/139
f 31/88/144 30/87/143 65/83/139
f 32/89/145 31/88/144 65/83/139
f 33/90/146 32/89/145 65/83/139
f 34/91/147 33/90/146 65/83/139
f 35/92/148 34/91/147 65/83/139
f 36/93/149 35/92/148 65/83/139
f 37/94/150 36/93/149 65/83/139
f 38/95/151 37/94/150 65/83/139
f 39/96/152 38/95/151 65/83/139
f 40/97/153 39/96/152 65/83/139
f 41/98/154 40/97/153 65/83/139
f 42/99/155 41/98/154 65/83/139
f 43/100/156 42/99/155 65/83/139
f 44/101/157 43/100/156 65/83/139
f 25/82/138 44/101/157 65/83/139
s 3
f 45/102/158 46/103/159 66/104/160
f 46/103/159 47/105/161 66/104/160
f 47/105/161 48/106/162 66/104/160
f 48/106/162 49/107/163 66/104/160
f 49/107/163 50/108/164 66/104/160
f 50/108/164 51/109/165 66/104/160
f 51/109/165 52/110/166 66/104/160
f 52/110/166 53/111/167 66/104/160
f 53/111/167 54/112/168 66/104/160
f 54/112/168 55/113/169 66/104/160
f 55/113/169 56/114/170 66/104/160
f 56/114/170 57/115/171 66/104/160
f 57/115/171 58/116/172 66/104/160
f 58/116/172 59/117/173 66/104/160
f 59/117/173 60/118/174 66/104/160
f 60/118/174 61/119/175 66/104/160
f 61/119/175 62/120/176 66/104/160
f 62/120/176 63/121/177 66/104/160
f 63/121/177 64/122/178 66/104/160
f 64/122/178 45/102/158 66/104/160
