# This file uses centimeters as units for non-parametric coordinates.

mtllib arm.mtl
g default
v -6.200000 0.500000 0.500000
v 4.079191 0.500000 0.500000
v 3.999999 0.500000 0.000000
v 4.079191 0.500000 -0.500000
v -6.200000 0.500000 -0.500000
v 4.079191 -0.500000 -0.500000
v 4.107675 -0.500000 -0.679838
v 4.661158 -0.500000 -0.500000
v 4.661158 0.500000 -0.500000
v 4.107675 0.500000 -0.679838
v 4.661158 -0.500000 0.500000
v 4.107675 -0.500000 0.679838
v 4.079191 -0.500000 0.500000
v 6.879838 -0.500000 -2.092325
v 7.493128 -0.500000 -1.779838
v 6.200000 -0.500000 0.000000
v 4.107675 0.500000 0.679838
v 4.661158 0.500000 0.500000
v 4.906872 -0.500000 -1.779838
v 4.420162 -0.500000 -1.293128
v 4.420162 0.500000 -1.293128
v 4.906872 0.500000 -1.779838
v 7.979838 -0.500000 -1.293128
v 5.520162 -0.500000 -2.092325
v 5.520162 0.500000 -2.092325
v 7.493128 0.500000 -1.779838
v 6.879838 0.500000 -2.092325
v 6.200000 0.500000 0.000000
v 5.511809 -0.500000 -0.500000
v 8.292326 -0.500000 -0.679838
v 5.836729 -0.500000 -0.500000
v 6.200000 -0.500000 -2.200001
v 6.200000 0.500000 -2.200001
v 7.979838 0.500000 -1.293128
v 6.037540 -0.500000 -0.500000
v 8.400000 -0.500000 0.000000
v 8.292326 0.500000 -0.679838
v 8.292324 -0.500000 0.679837
v 6.200000 -0.500000 -0.500000
v 7.493127 -0.500000 1.779838
v 6.879837 -0.500000 2.092324
v 7.979837 -0.500000 1.293128
v 5.511809 0.500000 -0.500000
v 8.400000 0.500000 0.000000
v 5.836729 0.500000 -0.500000
v 8.292324 0.500000 0.679837
v 6.037540 0.500000 -0.500000
v 6.879837 0.500000 2.092324
v 7.493127 0.500000 1.779838
v 7.979837 0.500000 1.293128
v 5.511809 -0.500000 0.500000
v 4.420162 -0.500000 1.293128
v 6.200000 0.500000 -0.500000
v 4.420162 0.500000 1.293128
v 5.836729 -0.500000 0.500000
v 4.906872 -0.500000 1.779838
v 5.511809 0.500000 0.500000
v 4.906872 0.500000 1.779838
v 6.037540 -0.500000 0.500000
v 5.520162 -0.500000 2.092325
v 5.836729 0.500000 0.500000
v 6.200000 -0.500000 0.500000
v 6.200000 -0.500000 2.200000
v 5.520162 0.500000 2.092325
v 6.037540 0.500000 0.500000
v 6.200000 0.500000 2.200000
v 6.200000 0.500000 0.500000
v 3.999999 -0.500000 0.000000
v -6.200000 -0.500000 0.500000
v -6.200000 -0.500000 -0.500000
vt 0.375000 0.250000
vt 0.582242 0.250000
vt 0.580645 0.375000
vt 0.582242 0.500000
vt 0.375000 0.500000
vt 0.349374 0.120739
vt 0.351397 0.107966
vt 0.390707 0.119085
vt 0.390707 0.877608
vt 0.351397 0.892034
vt 0.349374 0.879261
vt 0.390707 0.190108
vt 0.351397 0.204534
vt 0.349374 0.191761
vt 0.548284 0.007647
vt 0.591842 0.029841
vt 0.500000 0.150000
vt 0.349374 0.808239
vt 0.351397 0.795466
vt 0.390707 0.806585
vt 0.450000 0.312500
vt 0.462500 0.312500
vt 0.462500 0.688440
vt 0.450000 0.688440
vt 0.626409 0.064408
vt 0.437500 0.312500
vt 0.437500 0.688440
vt 0.475000 0.312500
vt 0.475000 0.688440
vt 0.591841 0.970159
vt 0.548284 0.992353
vt 0.500000 0.837500
vt 0.373591 0.064409
vt 0.451123 0.116905
vt 0.478307 0.688440
vt 0.478307 0.312500
vt 0.648603 0.107966
vt 0.408159 0.029841
vt 0.474199 0.116244
vt 0.425000 0.312500
vt 0.425000 0.688440
vt 0.626409 0.935591
vt 0.451716 0.007647
vt 0.488462 0.115982
vt 0.656250 0.156250
vt 0.648603 0.892034
vt 0.648603 0.204534
vt 0.500000 -0.000000
vt 0.500000 0.115909
vt 0.591841 0.282659
vt 0.548284 0.304853
vt 0.626409 0.248091
vt 0.412500 0.312500
vt 0.412500 0.688440
vt 0.451123 0.875428
vt 0.373591 0.935591
vt 0.656250 0.843750
vt 0.474199 0.874767
vt 0.408159 0.970159
vt 0.496693 0.312500
vt 0.500000 0.312500
vt 0.500000 0.688440
vt 0.496693 0.688440
vt 0.648603 0.795466
vt 0.488462 0.874505
vt 0.451716 0.992353
vt 0.548284 0.695147
vt 0.591842 0.717341
vt 0.626409 0.751908
vt 0.451123 0.187928
vt 0.373591 0.248091
vt 0.500000 0.874432
vt 0.500000 1.000000
vt 0.400000 0.312500
vt 0.400000 0.688440
vt 0.512500 0.312500
vt 0.512500 0.688440
vt 0.474199 0.187267
vt 0.408159 0.282659
vt 0.373591 0.751909
vt 0.451123 0.804405
vt 0.525000 0.312500
vt 0.525000 0.688440
vt 0.387500 0.312500
vt 0.387500 0.688440
vt 0.488462 0.187005
vt 0.451716 0.304853
vt 0.408159 0.717341
vt 0.474199 0.803744
vt 0.500000 0.186932
vt 0.500000 0.312500
vt 0.537500 0.312500
vt 0.537500 0.688440
vt 0.375000 0.312500
vt 0.375000 0.688440
vt 0.451716 0.695147
vt 0.488462 0.803482
vt 0.500000 0.687500
vt 0.500000 0.803409
vt 0.550000 0.312500
vt 0.550000 0.688440
vt 0.612500 0.312500
vt 0.625000 0.312500
vt 0.625000 0.688440
vt 0.612500 0.688440
vt 0.600000 0.312500
vt 0.600000 0.688440
vt 0.562500 0.312500
vt 0.562500 0.688440
vt 0.575000 0.312500
vt 0.575000 0.688440
vt 0.587500 0.312500
vt 0.587500 0.688440
vt 0.582242 0.750000
vt 0.593975 0.750000
vt 0.611125 0.750000
vt 0.617676 0.750000
vt 0.621725 0.750000
vt 0.625000 0.750000
vt 0.625000 0.875000
vt 0.625000 1.000000
vt 0.621725 1.000000
vt 0.617676 1.000000
vt 0.611125 1.000000
vt 0.593975 1.000000
vt 0.582242 1.000000
vt 0.580645 0.875000
vt 0.593975 0.250000
vt 0.611125 0.250000
vt 0.617676 0.250000
vt 0.621725 0.250000
vt 0.625000 0.250000
vt 0.625000 0.375000
vt 0.625000 0.500000
vt 0.621725 0.500000
vt 0.617676 0.500000
vt 0.611125 0.500000
vt 0.593975 0.500000
vt 0.375000 0.000000
vt 0.582242 0.000000
vt 0.375000 0.750000
vt 0.375000 1.000000
vt 0.125000 0.000000
vt 0.125000 0.250000
vn 0.000000 1.000000 0.000000
vn 0.000000 1.000000 0.000000
vn 0.000000 1.000000 0.000000
vn 0.000000 1.000000 0.000000
vn 0.000000 1.000000 0.000000
vn 0.000000 -1.000000 0.000000
vn 0.000000 -1.000000 0.000000
vn 0.000000 -1.000000 0.000000
vn 0.000000 1.000000 0.000000
vn 0.000000 1.000000 0.000000
vn 0.000000 -1.000000 0.000000
vn 0.000000 -1.000000 0.000000
vn 0.000000 -1.000000 0.000000
vn 0.000000 -1.000000 0.000000
vn 0.000000 -1.000000 0.000000
vn 0.000000 -1.000000 0.000000
vn 0.000000 1.000000 0.000000
vn 0.000000 1.000000 0.000000
vn -0.587785 0.000000 -0.809017
vn -0.809017 0.000000 -0.587785
vn -0.809017 0.000000 -0.587785
vn -0.587785 0.000000 -0.809017
vn 0.000000 -1.000000 0.000000
vn -0.309017 0.000000 -0.951056
vn -0.309017 0.000000 -0.951056
vn -0.918701 0.000000 -0.394955
vn -0.918701 0.000000 -0.394955
vn 0.000000 1.000000 0.000000
vn 0.000000 1.000000 0.000000
vn 0.000000 1.000000 0.000000
vn 0.000000 -1.000000 0.000000
vn 0.000000 -1.000000 0.000000
vn -0.987688 0.000000 -0.156434
vn -0.987688 0.000000 -0.156434
vn 0.000000 -1.000000 0.000000
vn 0.000000 -1.000000 0.000000
vn 0.000000 -1.000000 0.000000
vn 0.000000 0.000000 -1.000000
vn 0.000000 0.000000 -1.000000
vn 0.000000 1.000000 0.000000
vn 0.000000 -1.000000 0.000000
vn 0.000000 -1.000000 0.000000
vn 0.000000 -1.000000 0.000000
vn 0.000000 1.000000 0.000000
vn 0.000000 -1.000000 0.000000
vn 0.000000 -1.000000 0.000000
vn 0.000000 -1.000000 0.000000
vn 0.000000 -1.000000 0.000000
vn 0.000000 -1.000000 0.000000
vn 0.000000 -1.000000 0.000000
vn 0.309017 0.000000 -0.951057
vn 0.309017 0.000000 -0.951057
vn 0.000000 1.000000 0.000000
vn 0.000000 1.000000 0.000000
vn 0.000000 1.000000 0.000000
vn 0.000000 1.000000 0.000000
vn 0.000000 1.000000 0.000000
vn -0.987688 0.000000 0.156434
vn -0.918700 0.000000 0.394955
vn -0.918700 0.000000 0.394955
vn -0.987688 0.000000 0.156434
vn 0.000000 1.000000 0.000000
vn 0.000000 1.000000 0.000000
vn 0.000000 1.000000 0.000000
vn 0.000000 1.000000 0.000000
vn 0.000000 1.000000 0.000000
vn 0.000000 1.000000 0.000000
vn 0.000000 -1.000000 0.000000
vn 0.000000 -1.000000 0.000000
vn 0.000000 1.000000 0.000000
vn 0.000000 1.000000 0.000000
vn 0.587785 0.000000 -0.809017
vn 0.587785 0.000000 -0.809017
vn -0.809017 0.000000 0.587785
vn -0.809017 0.000000 0.587785
vn 0.000000 -1.000000 0.000000
vn 0.000000 -1.000000 0.000000
vn 0.000000 1.000000 0.000000
vn 0.000000 1.000000 0.000000
vn -0.587785 0.000000 0.809017
vn -0.587785 0.000000 0.809017
vn 0.809017 0.000000 -0.587786
vn 0.809017 0.000000 -0.587786
vn 0.000000 -1.000000 0.000000
vn 0.000000 -1.000000 0.000000
vn 0.000000 1.000000 0.000000
vn 0.000000 1.000000 0.000000
vn 0.000000 -1.000000 0.000000
vn 0.000000 -1.000000 0.000000
vn -0.309017 0.000000 0.951057
vn -0.309017 0.000000 0.951057
vn 0.951057 0.000000 -0.309016
vn 0.951057 0.000000 -0.309016
vn 0.000000 1.000000 0.000000
vn 0.000000 1.000000 0.000000
vn 0.000000 1.000000 0.000000
vn 0.000000 1.000000 0.000000
vn 0.000000 0.000000 1.000000
vn 0.000000 0.000000 1.000000
vn 1.000000 0.000000 0.000001
vn 1.000000 0.000000 0.000001
vn 0.951057 0.000000 0.309017
vn 0.951057 0.000000 0.309017
vn 0.309017 0.000000 0.951057
vn 0.309017 0.000000 0.951057
vn 0.587785 0.000000 0.809017
vn 0.587785 0.000000 0.809017
vn 0.809017 0.000000 0.587785
vn 0.809017 0.000000 0.587785
vn 0.000000 -1.000000 0.000000
vn 0.000000 0.000000 1.000000
vn 0.000000 0.000000 1.000000
vn 0.000000 0.000000 1.000000
vn 0.000000 0.000000 1.000000
vn 0.000000 -1.000000 0.000000
vn 0.000000 -1.000000 0.000000
vn 0.000000 0.000000 -1.000000
vn 0.000000 0.000000 -1.000000
vn 0.000000 0.000000 -1.000000
vn 0.000000 0.000000 -1.000000
vn -1.000000 0.000000 0.000000
vn -1.000000 0.000000 0.000000
vn -1.000000 0.000000 0.000000
vn -1.000000 0.000000 0.000000
s 1
g pCube2
usemtl initialShadingGroup
f 1/1/1 2/2/2 3/3/3 4/4/4 5/5/5
s 2
f 6/6/6 7/7/7 8/8/8
s 1
f 9/9/9 10/10/10 4/11/4
s 2
f 11/12/11 12/13/12 13/14/13
f 14/15/14 15/16/15 16/17/16
s 1
f 2/18/2 17/19/17 18/20/18
s 7
f 19/21/19 20/22/20 21/23/21 22/24/22
s 2
f 15/16/15 23/25/23 16/17/16
s 7
f 24/26/24 19/21/19 22/24/22 25/27/25
f 20/22/20 7/28/26 10/29/27 21/23/21
s 1
f 26/30/28 27/31/29 28/32/30
s 2
f 8/8/8 7/7/7 20/33/31 29/34/32
s 7
f 4/35/33 10/29/27 7/28/26 6/36/34
s 2
f 23/25/23 30/37/35 16/17/16
f 29/34/32 20/33/31 19/38/36 31/39/37
s 7
f 32/40/38 24/26/24 25/27/25 33/41/39
s 1
f 34/42/40 26/30/28 28/32/30
s 2
f 31/39/37 19/38/36 24/43/41 35/44/42
f 30/37/35 36/45/43 16/17/16
s 1
f 37/46/44 34/42/40 28/32/30
s 2
f 36/45/43 38/47/45 16/17/16
f 35/44/42 24/43/41 32/48/46 39/49/47
f 40/50/48 41/51/49 16/17/16
f 38/47/45 42/52/50 16/17/16
f 42/52/50 40/50/48 16/17/16
s 7
f 14/53/51 32/40/38 33/41/39 27/54/52
s 1
f 43/55/53 21/56/54 10/10/10 9/9/9
f 44/57/55 37/46/44 28/32/30
f 45/58/56 22/59/57 21/56/54 43/55/53
s 2
f 32/48/46 14/15/14 16/17/16 39/49/47
s 7
f 13/60/58 12/61/59 17/62/60 2/63/61
s 1
f 46/64/62 44/57/55 28/32/30
f 47/65/63 25/66/64 22/59/57 45/58/56
f 48/67/65 49/68/66 28/32/30
f 50/69/67 46/64/62 28/32/30
s 2
f 51/70/68 52/71/69 12/13/12 11/12/11
s 1
f 49/68/66 50/69/67 28/32/30
f 53/72/70 33/73/71 25/66/64 47/65/63
s 7
f 15/74/72 14/53/51 27/54/52 26/75/73
f 12/61/59 52/76/74 54/77/75 17/62/60
s 1
f 27/31/29 33/73/71 53/72/70 28/32/30
s 2
f 55/78/76 56/79/77 52/71/69 51/70/68
s 1
f 18/20/18 17/19/17 54/80/78 57/81/79
s 7
f 52/76/74 56/82/80 58/83/81 54/77/75
f 23/84/82 15/74/72 26/75/73 34/85/83
s 2
f 59/86/84 60/87/85 56/79/77 55/78/76
s 1
f 57/81/79 54/80/78 58/88/86 61/89/87
s 2
f 62/90/88 63/91/89 60/87/85 59/86/84
f 41/51/49 63/91/89 62/90/88 16/17/16
s 7
f 56/82/80 60/92/90 64/93/91 58/83/81
f 30/94/92 23/84/82 34/85/83 37/95/93
s 1
f 61/89/87 58/88/86 64/96/94 65/97/95
f 65/97/95 64/96/94 66/98/96 67/99/97
s 7
f 60/92/90 63/100/98 66/101/99 64/93/91
f 36/102/100 30/103/92 37/104/93 44/105/101
s 1
f 66/98/96 48/67/65 28/32/30 67/99/97
s 7
f 38/106/102 36/102/100 44/105/101 46/107/103
f 63/100/98 41/108/104 48/109/105 66/101/99
f 41/108/104 40/110/106 49/111/107 48/109/105
f 42/112/108 38/106/102 46/107/103 50/113/109
f 40/110/106 42/112/108 50/113/109 49/111/107
s 2
f 6/114/6 8/115/8 29/116/32 31/117/37 35/118/42 39/119/47 16/120/16 62/121/88 59/122/84 55/123/76 51/124/68 11/125/11 13/126/13 68/127/110
s 1
f 2/2/2 18/128/18 57/129/79 61/130/87 65/131/95 67/132/97 28/133/30 53/134/70 47/135/63 45/136/56 43/137/53 9/138/9 4/4/4 3/3/3
s off
f 2/2/111 1/1/112 69/139/113 13/140/114
s 2
f 70/141/115 6/114/6 68/127/110 13/126/13 69/142/116
s off
f 6/114/117 70/141/118 5/5/119 4/4/120
f 70/143/121 69/139/122 1/1/123 5/144/124
